<svg xmlns="http://www.w3.org/2000/svg" width="68.33" height="64.634" viewBox="0 0 18.079 17.101" xmlns:v="https://vecta.io/nano"><defs><filter  x="-.01" y="-.009" width="1.019" height="1.018" color-interpolation-filters="sRGB"><feTurbulence baseFrequency="0.250793 0.376185" numOctaves="5" seed="48" type="fractalNoise"/><feComposite in="SourceGraphic" operator="in"/><feColorMatrix result="C" values="1 0 0 0 0 0 1 0 0 0 0 0 1 0 0 0 0 0 2.32036 -0.748503 "/><feFlood flood-color="#152800" flood-opacity="0" result="D"/><feMerge><feMergeNode in="D"/><feMergeNode in="C"/></feMerge><feComposite in2="SourceGraphic" operator="in" result="F"/><feColorMatrix values="0 0 0 -1 0 0 0 0 -1 0 0 0 0 -1 0 0 0 0 1 0"/><feGaussianBlur in="F" stdDeviation="0.21 0.21"/></filter><filter id="B" x="-.074" y="-.079" width="1.149" height="1.158" color-interpolation-filters="sRGB"><feTurbulence baseFrequency="0.376185 0.344837" seed="48" type="fractalNoise"/><feComposite in="SourceGraphic" operator="in"/><feColorMatrix result="C" values="1 0 0 0 0 0 1 0 0 0 0 0 1 0 0 0 0 0 2.32036 -0.748503 "/><feFlood flood-color="#152800" flood-opacity="0" result="D"/><feMerge><feMergeNode in="D"/><feMergeNode in="C"/></feMerge><feComposite in2="SourceGraphic" operator="in" result="F"/><feColorMatrix values="0 0 0 -1 0 0 0 0 -1 0 0 0 0 -1 0 0 0 0 1 0"/><feColorMatrix in="F" values="1 0 0 0 0 0 1 0 0 0 0 0 1 0 0 -0.2125 -0.7154 -0.0721 1 0 "/><feComposite in="F" k2="1" k4="2.77556e-17" operator="arithmetic" result="I"/><feGaussianBlur result="J" stdDeviation="0.548653 0.01"/><feGaussianBlur in="I" stdDeviation="0.01 0.548653"/><feBlend in2="J" mode="darken"/></filter></defs><ellipse cx="85.316" cy="66.754" rx="9" ry="8.5" fill="#d6ebc8" filter="url(#B)" transform="translate(-76.332 -58.175)"/><path d="M14.228 2.445l-1.323.296c-1.132.222-1.312.289-1.817.663-.716.533-1.217 1.563-1.214 2.498.004.356.056.61.116.543.014-.018.064-.12.106-.226.215-.519.84-1.309 1.372-1.736.272-.219.818-.434.818-.321 0 .039-.187.272-.409.504-.208.222-.279.314-.67.882-.406.596-.935 1.662-1.291 2.611l-.769 2.205-.589 1.7c-.056.021-.212-.483-.536-1.736-.504-1.961-.72-2.635-1.235-3.863-.353-.836-.818-1.506-1.764-2.533-.519-.568-1.256-1.111-1.7-1.259-.289-.099-.314-.049-.095.194 1.03 1.161 1.626 2.021 2.258 3.246.533 1.041.9 2.074 1.566 4.445l.663 2.752.321 1.422c.014.032.067.074.12.088a3.56 3.56 0 0 0 .822 0c.183-.053.219-.198.473-1.863.169-1.125.314-1.799.603-2.805.49-1.715 1.013-2.97 1.33-3.175.046-.028.272-.085.508-.123.917-.152 1.654-.557 2.177-1.203.349-.43.441-.748.529-1.806.046-.561.074-.72.18-1.055.067-.219.113-.416.106-.441-.025-.063-.081-.056-.656.095z" fill="#017f00"/></svg>